<mxfile host="app.diagrams.net" agent="Mozilla/5.0 (Windows NT 10.0; Win64; x64) AppleWebKit/537.36 (KHTML, like Gecko) Chrome/134.0.0.0 Safari/537.36 Edg/134.0.0.0" version="26.1.0">
  <diagram name="Página-1" id="QK3J4z4PCamVd8zmtF81">
    <mxGraphModel dx="786" dy="463" grid="1" gridSize="10" guides="1" tooltips="1" connect="1" arrows="1" fold="1" page="1" pageScale="1" pageWidth="827" pageHeight="1169" math="0" shadow="0">
      <root>
        <mxCell id="0" />
        <mxCell id="1" parent="0" />
        <mxCell id="Rf_MtS75EZoczf0fj2SX-1" value="LIVRO" style="whiteSpace=wrap;html=1;align=center;" vertex="1" parent="1">
          <mxGeometry x="100" y="260" width="100" height="40" as="geometry" />
        </mxCell>
        <mxCell id="Rf_MtS75EZoczf0fj2SX-2" value="EMPRÉSTIMO" style="whiteSpace=wrap;html=1;align=center;" vertex="1" parent="1">
          <mxGeometry x="360" y="260" width="100" height="40" as="geometry" />
        </mxCell>
        <mxCell id="Rf_MtS75EZoczf0fj2SX-3" value="USUÁRIO" style="whiteSpace=wrap;html=1;align=center;" vertex="1" parent="1">
          <mxGeometry x="610" y="260" width="100" height="40" as="geometry" />
        </mxCell>
        <mxCell id="Rf_MtS75EZoczf0fj2SX-8" style="edgeStyle=orthogonalEdgeStyle;rounded=0;orthogonalLoop=1;jettySize=auto;html=1;entryX=0.25;entryY=0;entryDx=0;entryDy=0;" edge="1" parent="1" source="Rf_MtS75EZoczf0fj2SX-4" target="Rf_MtS75EZoczf0fj2SX-1">
          <mxGeometry relative="1" as="geometry" />
        </mxCell>
        <mxCell id="Rf_MtS75EZoczf0fj2SX-4" value="ID_LIVRO" style="ellipse;whiteSpace=wrap;html=1;align=center;" vertex="1" parent="1">
          <mxGeometry x="30" y="180" width="100" height="40" as="geometry" />
        </mxCell>
        <mxCell id="Rf_MtS75EZoczf0fj2SX-5" value="TITULO" style="ellipse;whiteSpace=wrap;html=1;align=center;" vertex="1" parent="1">
          <mxGeometry x="150" y="180" width="100" height="40" as="geometry" />
        </mxCell>
        <mxCell id="Rf_MtS75EZoczf0fj2SX-10" style="edgeStyle=orthogonalEdgeStyle;rounded=0;orthogonalLoop=1;jettySize=auto;html=1;entryX=0.25;entryY=1;entryDx=0;entryDy=0;" edge="1" parent="1" source="Rf_MtS75EZoczf0fj2SX-6" target="Rf_MtS75EZoczf0fj2SX-1">
          <mxGeometry relative="1" as="geometry" />
        </mxCell>
        <mxCell id="Rf_MtS75EZoczf0fj2SX-6" value="AUTOR" style="ellipse;whiteSpace=wrap;html=1;align=center;" vertex="1" parent="1">
          <mxGeometry x="50" y="330" width="100" height="40" as="geometry" />
        </mxCell>
        <mxCell id="Rf_MtS75EZoczf0fj2SX-7" value="GÉNERO" style="ellipse;whiteSpace=wrap;html=1;align=center;" vertex="1" parent="1">
          <mxGeometry x="160" y="340" width="100" height="40" as="geometry" />
        </mxCell>
        <mxCell id="Rf_MtS75EZoczf0fj2SX-9" style="edgeStyle=orthogonalEdgeStyle;rounded=0;orthogonalLoop=1;jettySize=auto;html=1;entryX=0.665;entryY=-0.048;entryDx=0;entryDy=0;entryPerimeter=0;" edge="1" parent="1" source="Rf_MtS75EZoczf0fj2SX-5" target="Rf_MtS75EZoczf0fj2SX-1">
          <mxGeometry relative="1" as="geometry" />
        </mxCell>
        <mxCell id="Rf_MtS75EZoczf0fj2SX-13" style="edgeStyle=orthogonalEdgeStyle;rounded=0;orthogonalLoop=1;jettySize=auto;html=1;entryX=0.598;entryY=1.058;entryDx=0;entryDy=0;entryPerimeter=0;" edge="1" parent="1" source="Rf_MtS75EZoczf0fj2SX-7" target="Rf_MtS75EZoczf0fj2SX-1">
          <mxGeometry relative="1" as="geometry" />
        </mxCell>
        <mxCell id="Rf_MtS75EZoczf0fj2SX-15" value="" style="edgeStyle=orthogonalEdgeStyle;rounded=0;orthogonalLoop=1;jettySize=auto;html=1;" edge="1" parent="1" source="Rf_MtS75EZoczf0fj2SX-14" target="Rf_MtS75EZoczf0fj2SX-2">
          <mxGeometry relative="1" as="geometry" />
        </mxCell>
        <mxCell id="Rf_MtS75EZoczf0fj2SX-16" value="" style="edgeStyle=orthogonalEdgeStyle;rounded=0;orthogonalLoop=1;jettySize=auto;html=1;" edge="1" parent="1" source="Rf_MtS75EZoczf0fj2SX-14" target="Rf_MtS75EZoczf0fj2SX-1">
          <mxGeometry relative="1" as="geometry" />
        </mxCell>
        <mxCell id="Rf_MtS75EZoczf0fj2SX-14" value="" style="shape=rhombus;perimeter=rhombusPerimeter;whiteSpace=wrap;html=1;align=center;" vertex="1" parent="1">
          <mxGeometry x="220" y="250" width="120" height="60" as="geometry" />
        </mxCell>
        <mxCell id="Rf_MtS75EZoczf0fj2SX-18" value="" style="edgeStyle=orthogonalEdgeStyle;rounded=0;orthogonalLoop=1;jettySize=auto;html=1;" edge="1" parent="1" source="Rf_MtS75EZoczf0fj2SX-17" target="Rf_MtS75EZoczf0fj2SX-2">
          <mxGeometry relative="1" as="geometry" />
        </mxCell>
        <mxCell id="Rf_MtS75EZoczf0fj2SX-19" value="" style="edgeStyle=orthogonalEdgeStyle;rounded=0;orthogonalLoop=1;jettySize=auto;html=1;" edge="1" parent="1" source="Rf_MtS75EZoczf0fj2SX-17" target="Rf_MtS75EZoczf0fj2SX-3">
          <mxGeometry relative="1" as="geometry" />
        </mxCell>
        <mxCell id="Rf_MtS75EZoczf0fj2SX-17" value="" style="shape=rhombus;perimeter=rhombusPerimeter;whiteSpace=wrap;html=1;align=center;" vertex="1" parent="1">
          <mxGeometry x="480" y="250" width="120" height="60" as="geometry" />
        </mxCell>
        <mxCell id="Rf_MtS75EZoczf0fj2SX-29" style="edgeStyle=orthogonalEdgeStyle;rounded=0;orthogonalLoop=1;jettySize=auto;html=1;entryX=0.25;entryY=0;entryDx=0;entryDy=0;" edge="1" parent="1" source="Rf_MtS75EZoczf0fj2SX-20" target="Rf_MtS75EZoczf0fj2SX-2">
          <mxGeometry relative="1" as="geometry" />
        </mxCell>
        <mxCell id="Rf_MtS75EZoczf0fj2SX-20" value="ID_LIVRO" style="ellipse;whiteSpace=wrap;html=1;align=center;" vertex="1" parent="1">
          <mxGeometry x="300" y="180" width="100" height="40" as="geometry" />
        </mxCell>
        <mxCell id="Rf_MtS75EZoczf0fj2SX-21" value="ID_USUÁRIO" style="ellipse;whiteSpace=wrap;html=1;align=center;" vertex="1" parent="1">
          <mxGeometry x="414" y="190" width="100" height="40" as="geometry" />
        </mxCell>
        <mxCell id="Rf_MtS75EZoczf0fj2SX-22" value="ID_EMPRÉSTIMO" style="ellipse;whiteSpace=wrap;html=1;align=center;" vertex="1" parent="1">
          <mxGeometry x="430" y="330" width="100" height="40" as="geometry" />
        </mxCell>
        <mxCell id="Rf_MtS75EZoczf0fj2SX-27" style="edgeStyle=orthogonalEdgeStyle;rounded=0;orthogonalLoop=1;jettySize=auto;html=1;entryX=0.25;entryY=1;entryDx=0;entryDy=0;" edge="1" parent="1" source="Rf_MtS75EZoczf0fj2SX-23" target="Rf_MtS75EZoczf0fj2SX-2">
          <mxGeometry relative="1" as="geometry" />
        </mxCell>
        <mxCell id="Rf_MtS75EZoczf0fj2SX-23" value="DATA" style="ellipse;whiteSpace=wrap;html=1;align=center;" vertex="1" parent="1">
          <mxGeometry x="290" y="330" width="100" height="40" as="geometry" />
        </mxCell>
        <mxCell id="Rf_MtS75EZoczf0fj2SX-26" style="edgeStyle=orthogonalEdgeStyle;rounded=0;orthogonalLoop=1;jettySize=auto;html=1;entryX=0.5;entryY=1;entryDx=0;entryDy=0;" edge="1" parent="1" source="Rf_MtS75EZoczf0fj2SX-24" target="Rf_MtS75EZoczf0fj2SX-2">
          <mxGeometry relative="1" as="geometry" />
        </mxCell>
        <mxCell id="Rf_MtS75EZoczf0fj2SX-24" value="HORA" style="ellipse;whiteSpace=wrap;html=1;align=center;" vertex="1" parent="1">
          <mxGeometry x="360" y="380" width="100" height="40" as="geometry" />
        </mxCell>
        <mxCell id="Rf_MtS75EZoczf0fj2SX-28" style="edgeStyle=orthogonalEdgeStyle;rounded=0;orthogonalLoop=1;jettySize=auto;html=1;entryX=0.692;entryY=1.089;entryDx=0;entryDy=0;entryPerimeter=0;" edge="1" parent="1" source="Rf_MtS75EZoczf0fj2SX-22" target="Rf_MtS75EZoczf0fj2SX-2">
          <mxGeometry relative="1" as="geometry" />
        </mxCell>
        <mxCell id="Rf_MtS75EZoczf0fj2SX-30" style="edgeStyle=orthogonalEdgeStyle;rounded=0;orthogonalLoop=1;jettySize=auto;html=1;entryX=0.632;entryY=-0.048;entryDx=0;entryDy=0;entryPerimeter=0;" edge="1" parent="1" source="Rf_MtS75EZoczf0fj2SX-21" target="Rf_MtS75EZoczf0fj2SX-2">
          <mxGeometry relative="1" as="geometry" />
        </mxCell>
        <mxCell id="Rf_MtS75EZoczf0fj2SX-31" value="ID_USUÁRIO" style="ellipse;whiteSpace=wrap;html=1;align=center;" vertex="1" parent="1">
          <mxGeometry x="550" y="190" width="100" height="40" as="geometry" />
        </mxCell>
        <mxCell id="Rf_MtS75EZoczf0fj2SX-33" value="CPF" style="ellipse;whiteSpace=wrap;html=1;align=center;" vertex="1" parent="1">
          <mxGeometry x="600" y="360" width="100" height="40" as="geometry" />
        </mxCell>
        <mxCell id="Rf_MtS75EZoczf0fj2SX-37" style="edgeStyle=orthogonalEdgeStyle;rounded=0;orthogonalLoop=1;jettySize=auto;html=1;entryX=1;entryY=0;entryDx=0;entryDy=0;" edge="1" parent="1" source="Rf_MtS75EZoczf0fj2SX-34" target="Rf_MtS75EZoczf0fj2SX-3">
          <mxGeometry relative="1" as="geometry" />
        </mxCell>
        <mxCell id="Rf_MtS75EZoczf0fj2SX-34" value="TEL" style="ellipse;whiteSpace=wrap;html=1;align=center;" vertex="1" parent="1">
          <mxGeometry x="650" y="170" width="100" height="40" as="geometry" />
        </mxCell>
        <mxCell id="Rf_MtS75EZoczf0fj2SX-35" style="edgeStyle=orthogonalEdgeStyle;rounded=0;orthogonalLoop=1;jettySize=auto;html=1;entryX=0.344;entryY=0.998;entryDx=0;entryDy=0;entryPerimeter=0;" edge="1" parent="1" source="Rf_MtS75EZoczf0fj2SX-33" target="Rf_MtS75EZoczf0fj2SX-3">
          <mxGeometry relative="1" as="geometry" />
        </mxCell>
        <mxCell id="Rf_MtS75EZoczf0fj2SX-36" style="edgeStyle=orthogonalEdgeStyle;rounded=0;orthogonalLoop=1;jettySize=auto;html=1;entryX=0.441;entryY=0.119;entryDx=0;entryDy=0;entryPerimeter=0;" edge="1" parent="1" source="Rf_MtS75EZoczf0fj2SX-31" target="Rf_MtS75EZoczf0fj2SX-3">
          <mxGeometry relative="1" as="geometry" />
        </mxCell>
        <mxCell id="Rf_MtS75EZoczf0fj2SX-39" value="&lt;h1 style=&quot;margin-top: 0px;&quot;&gt;Diagrama ER: Biblioteca;&lt;/h1&gt;&lt;div&gt;Desenvolvido por Jamilly Dos Santos.&lt;/div&gt;" style="text;html=1;whiteSpace=wrap;overflow=hidden;rounded=0;" vertex="1" parent="1">
          <mxGeometry x="40" y="410" width="220" height="120" as="geometry" />
        </mxCell>
      </root>
    </mxGraphModel>
  </diagram>
</mxfile>
